<svg xmlns="http://www.w3.org/2000/svg" viewBox="0 0 600 220" width="600" height="220" role="img" aria-label="Language distribution: 17 Jupyter Notebook, 14 Python, 12 TypeScript, 11 JavaScript, 8 HTML, 4 C++"><title>Language distribution: 17 Jupyter Notebook, 14 Python, 12 TypeScript, 11 JavaScript, 8 HTML, 4 C++</title><rect width="600" height="220" rx="14" fill="#161b22" stroke="#30363d"/><text x="24" y="36" font-family="ui-sans-serif, system-ui, -apple-system, 'Segoe UI', Roboto, sans-serif" font-size="24" font-weight="700" fill="#e6edf3">Languages across 87 repositories</text><g><rect x="0.0" y="56" width="154.5" height="30" fill="#58a6ff"/><rect x="154.5" y="56" width="127.3" height="30" fill="#f778ba"/><rect x="281.8" y="56" width="109.1" height="30" fill="#3fb950"/><rect x="390.9" y="56" width="100.0" height="30" fill="#d29922"/><rect x="490.9" y="56" width="72.7" height="30" fill="#1f6feb"/><rect x="563.6" y="56" width="36.4" height="30" fill="#8b949e"/></g><circle cx="10" cy="111" r="7" fill="#58a6ff"/><text x="26" y="118" font-family="ui-sans-serif, system-ui, -apple-system, 'Segoe UI', Roboto, sans-serif" font-size="22" fill="#8b949e">Jupyter Notebook · 17</text><circle cx="312" cy="111" r="7" fill="#f778ba"/><text x="328.1" y="118" font-family="ui-sans-serif, system-ui, -apple-system, 'Segoe UI', Roboto, sans-serif" font-size="22" fill="#8b949e">Python · 14</text><circle cx="10" cy="145" r="7" fill="#3fb950"/><text x="26" y="152" font-family="ui-sans-serif, system-ui, -apple-system, 'Segoe UI', Roboto, sans-serif" font-size="22" fill="#8b949e">TypeScript · 12</text><circle cx="240" cy="145" r="7" fill="#d29922"/><text x="255.50000000000003" y="152" font-family="ui-sans-serif, system-ui, -apple-system, 'Segoe UI', Roboto, sans-serif" font-size="22" fill="#8b949e">JavaScript · 11</text><circle cx="10" cy="179" r="7" fill="#1f6feb"/><text x="26" y="186" font-family="ui-sans-serif, system-ui, -apple-system, 'Segoe UI', Roboto, sans-serif" font-size="22" fill="#8b949e">HTML · 8</text><circle cx="155" cy="179" r="7" fill="#8b949e"/><text x="170.8" y="186" font-family="ui-sans-serif, system-ui, -apple-system, 'Segoe UI', Roboto, sans-serif" font-size="22" fill="#8b949e">C++ · 4</text></svg>
